<svg xmlns="http://www.w3.org/2000/svg" xmlns:xlink="http://www.w3.org/1999/xlink" style="margin:auto;background:#1d2830;display:block;z-index:1;position:relative" width="1680" height="916" preserveAspectRatio="xMidYMid" viewBox="0 0 1680 916">
<g transform=""><defs>
  <path id="path-3vpp6d56f9l-1" d="M-35 -35L35 -35L35 35L-35 35Z" fill="none" stroke="inherit" stroke-width="5.454545454545454" transform="scale(0.55)"></path>
  <path id="path-3vpp6d56f9l-2" d="M0 -37A37 37 0 0 1 0 37A37 37 0 0 1 0 -37" fill="none" stroke="inherit" stroke-width="5.454545454545454" transform="scale(0.55)"></path>
  <path id="path-3vpp6d56f9l-3" d="M0 -34.641L40 34.641L-40 34.641Z" fill="none" stroke="inherit" stroke-width="5.454545454545454" transform="scale(0.55)"></path>
</defs><path id="path0" d="M 100.8849645714558 818.7991686431017
c 0 21.16633159896797 -5.178996029534716 6.079690991192929 -11.258687020727645 6.079690991192929
S 78.3675905300005 839.9655002420697 78.3675905300005 818.7991686431017
s 5.178996029534716 -6.079690991192929 11.258687020727645 -6.079690991192929
S 100.8849645714558 797.6328370441337 100.8849645714558 818.7991686431017
z" fill="none" stroke="none"></path>
<use xlink:href="#path-3vpp6d56f9l-3" x="0" y="0" stroke="#dee7e6">
  <animateMotion begin="-3.5376046090423108s" dur="36.7059616062791s" keyPoints="0;1" keyTimes="0;1" repeatCount="indefinite" calcMode="linear">
    <mpath xlink:href="#path0"></mpath>
  </animateMotion>
</use><path id="path1" d="M 143.955830429025 172.94322361916485
c 0 25.640282938050486 -6.273686250799586 7.364762120503863 -13.638448371303449 7.364762120503863
S 116.67893368641812 198.58350655721534 116.67893368641812 172.94322361916485
s 6.273686250799586 -7.364762120503863 13.638448371303449 -7.364762120503863
S 143.955830429025 147.30294068111436 143.955830429025 172.94322361916485
z" fill="none" stroke="none"></path>
<use xlink:href="#path-3vpp6d56f9l-2" x="0" y="0" stroke="#dee7e6">
  <animateMotion begin="-7.010600158032494s" dur="24.69125185084829s" keyPoints="0;1" keyTimes="0;1" repeatCount="indefinite" calcMode="linear">
    <mpath xlink:href="#path1"></mpath>
  </animateMotion>
</use><path id="path2" d="M 291.3224459344009 434.83936187845745
c 0 41.746373751577885 -10.2145382583648 11.990979694602158 -22.20551795296696 11.990979694602158
S 246.91141002846697 476.58573563003534 246.91141002846697 434.83936187845745
s 10.2145382583648 -11.990979694602158 22.20551795296696 -11.990979694602158
S 291.3224459344009 393.09298812687956 291.3224459344009 434.83936187845745
z" fill="none" stroke="none"></path>
<use xlink:href="#path-3vpp6d56f9l-3" x="0" y="0" stroke="#064d69">
  <animateMotion begin="-8.788736928957803s" dur="20.411393091077812s" keyPoints="0;1" keyTimes="0;1" repeatCount="indefinite" calcMode="linear">
    <mpath xlink:href="#path2"></mpath>
  </animateMotion>
</use><path id="path3" d="M 381.11305095044145 616.5266013857389
c 0 38.08067230619259 -9.317611308962016 10.938065449651063 -20.255676758613077 10.938065449651063
S 340.60169743321535 654.6072736919315 340.60169743321535 616.5266013857389
s 9.317611308962016 -10.938065449651063 20.255676758613077 -10.938065449651063
S 381.11305095044145 578.4459290795463 381.11305095044145 616.5266013857389
z" fill="none" stroke="none"></path>
<use xlink:href="#path-3vpp6d56f9l-2" x="0" y="0" stroke="#7ba6b7">
  <animateMotion begin="-8.416316301163054s" dur="39.78549518873028s" keyPoints="0;1" keyTimes="0;1" repeatCount="indefinite" calcMode="linear">
    <mpath xlink:href="#path3"></mpath>
  </animateMotion>
</use><path id="path4" d="M 470.2126332864307 639.9152034857527
c 0 36.37525105428838 -8.900327385623752 10.448210409210493 -19.348537794834243 10.448210409210493
S 431.51555769676213 676.2904545400411 431.51555769676213 639.9152034857527
s 8.900327385623752 -10.448210409210493 19.348537794834243 -10.448210409210493
S 470.2126332864307 603.5399524314644 470.2126332864307 639.9152034857527
z" fill="none" stroke="none"></path>
<use xlink:href="#path-3vpp6d56f9l-3" x="0" y="0" stroke="#7ba6b7">
  <animateMotion begin="-4.9877371979761325s" dur="21.98371144702765s" keyPoints="1;0" keyTimes="0;1" repeatCount="indefinite" calcMode="linear">
    <mpath xlink:href="#path4"></mpath>
  </animateMotion>
</use><path id="path5" d="M 512.1069414501802 433.1479862938373
c 0 31.544103364755856 -7.7182380573338785 9.060540328174554 -16.77877838550843 9.060540328174554
S 478.5493846791634 464.69208965859315 478.5493846791634 433.1479862938373
s 7.7182380573338785 -9.060540328174554 16.77877838550843 -9.060540328174554
S 512.1069414501802 401.6038829290814 512.1069414501802 433.1479862938373
z" fill="none" stroke="none"></path>
<use xlink:href="#path-3vpp6d56f9l-3" x="0" y="0" stroke="#7ba6b7">
  <animateMotion begin="-2.170159564476084s" dur="22.213032533494783s" keyPoints="1;0" keyTimes="0;1" repeatCount="indefinite" calcMode="linear">
    <mpath xlink:href="#path5"></mpath>
  </animateMotion>
</use><path id="path6" d="M 660.8695366986383 768.7884809497472
c 0 62.87025277548577 -15.383146955703962 18.058476861043786 -33.44162381674775 18.058476861043786
S 593.9862890651427 831.6587337252329 593.9862890651427 768.7884809497472
s 15.383146955703962 -18.058476861043786 33.44162381674775 -18.058476861043786
S 660.8695366986383 705.9182281742615 660.8695366986383 768.7884809497472
z" fill="none" stroke="none"></path>
<use xlink:href="#path-3vpp6d56f9l-3" x="0" y="0" stroke="#dee7e6">
  <animateMotion begin="-2.821025675878137s" dur="28.995385827584514s" keyPoints="0;1" keyTimes="0;1" repeatCount="indefinite" calcMode="linear">
    <mpath xlink:href="#path6"></mpath>
  </animateMotion>
</use><path id="path7" d="M 747.9263344768278 835.6702948793762
c 0 36.15678995113066 -8.846874136978778 10.385460943409871 -19.23233508038865 10.385460943409871
S 709.4616643160505 871.8270848305069 709.4616643160505 835.6702948793762
s 8.846874136978778 -10.385460943409871 19.23233508038865 -10.385460943409871
S 747.9263344768278 799.5135049282455 747.9263344768278 835.6702948793762
z" fill="none" stroke="none"></path>
<use xlink:href="#path-3vpp6d56f9l-2" x="0" y="0" stroke="#064d69">
  <animateMotion begin="-2.505607634691618s" dur="33.40730255389473s" keyPoints="0;1" keyTimes="0;1" repeatCount="indefinite" calcMode="linear">
    <mpath xlink:href="#path7"></mpath>
  </animateMotion>
</use><path id="path8" d="M 859.6437529167923 418.1316509336631
c 0 47.58823025220502 -11.643928678731013 13.668959753292931 -25.312888432023946 13.668959753292931
S 809.0179760527445 465.7198811858681 809.0179760527445 418.1316509336631
s 11.643928678731013 -13.668959753292931 25.312888432023946 -13.668959753292931
S 859.6437529167923 370.5434206814581 859.6437529167923 418.1316509336631
z" fill="none" stroke="none"></path>
<use xlink:href="#path-3vpp6d56f9l-1" x="0" y="0" stroke="#7ba6b7">
  <animateMotion begin="-8.481037390414981s" dur="33.72913128094487s" keyPoints="1;0" keyTimes="0;1" repeatCount="indefinite" calcMode="linear">
    <mpath xlink:href="#path8"></mpath>
  </animateMotion>
</use><path id="path9" d="M 920.3560272769179 170.4349094026635
c 0 57.21077084631508 -13.998380100694112 16.43288098777135 -30.431261088465465 16.43288098777135
S 859.4935050999869 227.64568024897858 859.4935050999869 170.4349094026635
s 13.998380100694112 -16.43288098777135 30.431261088465465 -16.43288098777135
S 920.3560272769179 113.22413855634841 920.3560272769179 170.4349094026635
z" fill="none" stroke="none"></path>
<use xlink:href="#path-3vpp6d56f9l-3" x="0" y="0" stroke="#dee7e6">
  <animateMotion begin="-4.689435679564418s" dur="21.795549904296344s" keyPoints="0;1" keyTimes="0;1" repeatCount="indefinite" calcMode="linear">
    <mpath xlink:href="#path9"></mpath>
  </animateMotion>
</use><path id="path10" d="M 982.1229930587633 734.235294891196
c 0 22.292040343108454 -5.454435403101004 6.403032864509876 -11.85746826761088 6.403032864509876
S 958.4080565235415 756.5273352343045 958.4080565235415 734.235294891196
s 5.454435403101004 -6.403032864509876 11.85746826761088 -6.403032864509876
S 982.1229930587633 711.9432545480875 982.1229930587633 734.235294891196
z" fill="none" stroke="none"></path>
<use xlink:href="#path-3vpp6d56f9l-3" x="0" y="0" stroke="#7ba6b7">
  <animateMotion begin="-1.3671749957222867s" dur="36.52163616779093s" keyPoints="0;1" keyTimes="0;1" repeatCount="indefinite" calcMode="linear">
    <mpath xlink:href="#path10"></mpath>
  </animateMotion>
</use><path id="path11" d="M 1094.3450127663873 473.69322537089494
c 0 42.04678693084353 -10.28804361073831 12.077268586518887 -22.365312197257197 12.077268586518887
S 1049.6143883718728 515.7400123017385 1049.6143883718728 473.69322537089494
s 10.28804361073831 -12.077268586518887 22.365312197257197 -12.077268586518887
S 1094.3450127663873 431.6464384400514 1094.3450127663873 473.69322537089494
z" fill="none" stroke="none"></path>
<use xlink:href="#path-3vpp6d56f9l-3" x="0" y="0" stroke="#064d69">
  <animateMotion begin="-5.9497113409493s" dur="33.588222949337116s" keyPoints="1;0" keyTimes="0;1" repeatCount="indefinite" calcMode="linear">
    <mpath xlink:href="#path11"></mpath>
  </animateMotion>
</use><path id="path12" d="M 1188.159998524762 131.348081275895
c 0 38.304538022950986 -9.372386963062475 11.002367304464645 -20.37475426752712 11.002367304464645
S 1147.4104899897077 169.652619298846 1147.4104899897077 131.348081275895
s 9.372386963062475 -11.002367304464645 20.37475426752712 -11.002367304464645
S 1188.159998524762 93.043543252944 1188.159998524762 131.348081275895
z" fill="none" stroke="none"></path>
<use xlink:href="#path-3vpp6d56f9l-1" x="0" y="0" stroke="#dee7e6">
  <animateMotion begin="-9.87837440455267s" dur="30.06029654355403s" keyPoints="0;1" keyTimes="0;1" repeatCount="indefinite" calcMode="linear">
    <mpath xlink:href="#path12"></mpath>
  </animateMotion>
</use><path id="path13" d="M 1270.4369624671638 158.10272610809136
c 0 50.39919863907952 -12.331718815944988 14.47636556654412 -26.808084382489106 14.47636556654412
S 1216.8207937021855 208.50192474717088 1216.8207937021855 158.10272610809136
s 12.331718815944988 -14.47636556654412 26.808084382489106 -14.47636556654412
S 1270.4369624671638 107.70352746901185 1270.4369624671638 158.10272610809136
z" fill="none" stroke="none"></path>
<use xlink:href="#path-3vpp6d56f9l-2" x="0" y="0" stroke="#064d69">
  <animateMotion begin="-1.1602640210562387s" dur="36.85958172181236s" keyPoints="1;0" keyTimes="0;1" repeatCount="indefinite" calcMode="linear">
    <mpath xlink:href="#path13"></mpath>
  </animateMotion>
</use><path id="path14" d="M 1385.4785315730305 574.2343606873695
c 0 53.37714005196849 -13.060364055268884 15.331731717054778 -28.392095772323664 15.331731717054778
S 1328.694340028383 627.611500739338 1328.694340028383 574.2343606873695
s 13.060364055268884 -15.331731717054778 28.392095772323664 -15.331731717054778
S 1385.4785315730305 520.8572206354011 1385.4785315730305 574.2343606873695
z" fill="none" stroke="none"></path>
<use xlink:href="#path-3vpp6d56f9l-2" x="0" y="0" stroke="#7ba6b7">
  <animateMotion begin="-3.270244792912187s" dur="30.079995771797563s" keyPoints="0;1" keyTimes="0;1" repeatCount="indefinite" calcMode="linear">
    <mpath xlink:href="#path14"></mpath>
  </animateMotion>
</use><path id="path15" d="M 1435.4622891780862 207.41994645806545
c 0 39.13756665053579 -9.576213116620456 11.241641484728365 -20.81785460134882 11.241641484728365
S 1393.8265799753883 246.55751310860126 1393.8265799753883 207.41994645806545
s 9.576213116620456 -11.241641484728365 20.81785460134882 -11.241641484728365
S 1435.4622891780862 168.28237980752965 1435.4622891780862 207.41994645806545
z" fill="none" stroke="none"></path>
<use xlink:href="#path-3vpp6d56f9l-2" x="0" y="0" stroke="#064d69">
  <animateMotion begin="-6.373838903559346s" dur="37.428560797409176s" keyPoints="0;1" keyTimes="0;1" repeatCount="indefinite" calcMode="linear">
    <mpath xlink:href="#path15"></mpath>
  </animateMotion>
</use><path id="path16" d="M 1558.0134932295766 492.2280297041017
c 0 40.65926529485479 -9.948543635975106 11.678725137883823 -21.62726877385893 11.678725137883823
S 1514.7589556818587 532.8872949989565 1514.7589556818587 492.2280297041017
s 9.948543635975106 -11.678725137883823 21.62726877385893 -11.678725137883823
S 1558.0134932295766 451.5687644092469 1558.0134932295766 492.2280297041017
z" fill="none" stroke="none"></path>
<use xlink:href="#path-3vpp6d56f9l-3" x="0" y="0" stroke="#dee7e6">
  <animateMotion begin="-7.7600292820026295s" dur="21.482513007966322s" keyPoints="1;0" keyTimes="0;1" repeatCount="indefinite" calcMode="linear">
    <mpath xlink:href="#path16"></mpath>
  </animateMotion>
</use><path id="path17" d="M 1598.5748586235559 299.8788143344654
c 0 28.451330485969272 -6.961495757205246 8.172190671501813 -15.133686428707058 8.172190671501813
S 1568.3074857661418 328.33014482043467 1568.3074857661418 299.8788143344654
s 6.961495757205246 -8.172190671501813 15.133686428707058 -8.172190671501813
S 1598.5748586235559 271.42748384849614 1598.5748586235559 299.8788143344654
z" fill="none" stroke="none"></path>
<use xlink:href="#path-3vpp6d56f9l-1" x="0" y="0" stroke="#dee7e6">
  <animateMotion begin="-7.5583764427847004s" dur="39.83477863513056s" keyPoints="0;1" keyTimes="0;1" repeatCount="indefinite" calcMode="linear">
    <mpath xlink:href="#path17"></mpath>
  </animateMotion>
</use></g>
</svg>